<svg id="Layer_1" enable-background="new 0 0 512 512" height="512" viewBox="0 0 512 512" width="512" xmlns="http://www.w3.org/2000/svg"><g><g><g><ellipse cx="256.473" cy="22.462" fill="#83d4ee" rx="14.989" ry="14.962"/></g><g fill="#83d4ee"><ellipse cx="22.465" cy="410.955" rx="14.934" ry="15.016"/><ellipse cx="489.566" cy="410.955" rx="14.934" ry="15.016"/><ellipse cx="22.434" cy="70.934" rx="14.934" ry="15.016"/><ellipse cx="489.535" cy="70.934" rx="14.934" ry="15.016"/></g></g><path d="m278.9 482.073c0 12.29-9.97 22.43-22.43 22.43-6.56 0-12.44-2.82-16.52-7.28-3.99-4.36-6.28-10.27-5.86-16.67l.87-13.29 5.74-87.22h31.54l5.74 87.22.87 13.29c.03.51.05 1.01.05 1.52z" fill="#ffd469"/><path d="m278.9 482.073c0 12.29-9.97 22.43-22.43 22.43-6.56 0-12.44-2.82-16.52-7.28 4.42-1.04 8.36-3.3 11.46-6.4 4.36-4.36 7.06-10.39 7.06-17.05l-3.74-93.73h17.51l5.74 87.22.87 13.29c.03.51.05 1.01.05 1.52z" fill="#ffba4c"/><path d="m278.9 482.073c0 12.29-9.97 22.43-22.43 22.43-6.56 0-12.44-2.82-16.52-7.28-3.99-4.36-6.28-10.27-5.86-16.67l.87-13.29h43.02l.87 13.29c.03.51.05 1.01.05 1.52z" fill="#3a4b56"/><path d="m278.9 482.073c0 12.29-9.97 22.43-22.43 22.43-6.56 0-12.44-2.82-16.52-7.28 4.42-1.04 8.36-3.3 11.46-6.4 4.36-4.36 7.06-10.39 7.06-17.05l-.26-6.51h19.77l.87 13.29c.03.51.05 1.01.05 1.52z" fill="#22323a"/><g><path d="m395.078 240.94c0 76.817-62.282 139.099-139.099 139.099-17.511 0-34.279-3.233-49.711-9.147-52.267-20.01-89.378-70.646-89.378-129.952s37.121-109.942 89.397-129.952h.01c15.423-5.904 32.18-9.137 49.682-9.137 76.818 0 139.099 62.272 139.099 139.089z" fill="#d0edf5"/><path d="m395.078 240.94c0 76.817-62.282 139.099-139.099 139.099-17.511 0-34.279-3.233-49.711-9.147 7.592 1.364 15.413 2.07 23.406 2.07 72.907 0 132.022-59.105 132.022-132.022 0-72.907-59.115-132.012-132.022-132.012-7.983 0-15.785.706-23.377 2.06 15.423-5.904 32.18-9.137 49.682-9.137 76.818 0 139.099 62.272 139.099 139.089z" fill="#a6dff5"/></g><g><g><ellipse cx="147.093" cy="240.945" fill="#f76ba0" rx="14.989" ry="14.962"/></g><g><ellipse cx="364.938" cy="240.945" fill="#f76ba0" rx="14.989" ry="14.962"/></g></g></g><g><path d="m390.676 214.593c.602 0 1.213-.073 1.822-.225 4.019-1.003 6.464-5.074 5.46-9.093-3.311-13.265-8.474-26.002-15.347-37.855-2.078-3.583-6.667-4.804-10.25-2.727-3.584 2.078-4.805 6.667-2.727 10.25 6.167 10.637 10.8 22.064 13.771 33.965.851 3.408 3.909 5.685 7.271 5.685z"/><path d="m255.984 302.457c4.143 0 7.5-3.358 7.5-7.5v-102.694c0-4.142-3.357-7.5-7.5-7.5h-43.931c-4.143 0-7.5 3.358-7.5 7.5v102.694c0 4.142 3.357 7.5 7.5 7.5s7.5-3.358 7.5-7.5v-43.847h28.931v43.847c0 4.142 3.358 7.5 7.5 7.5zm-36.43-66.347v-36.347h28.931v36.347z"/><path d="m292.415 192.263v102.694c0 4.142 3.357 7.5 7.5 7.5s7.5-3.358 7.5-7.5v-102.694c0-4.142-3.357-7.5-7.5-7.5s-7.5 3.358-7.5 7.5z"/><path d="m147.093 218.483c-9.768 0-18.102 6.253-21.199 14.961h-118.363c-4.143 0-7.5 3.358-7.5 7.5s3.357 7.5 7.5 7.5h118.363c3.097 8.709 11.431 14.961 21.199 14.961 12.4 0 22.489-10.076 22.489-22.461s-10.089-22.461-22.489-22.461zm0 29.923c-4.129 0-7.488-3.347-7.488-7.461s3.359-7.461 7.488-7.461c4.13 0 7.489 3.347 7.489 7.461s-3.359 7.461-7.489 7.461z"/><path d="m342.449 240.945c0 12.385 10.089 22.461 22.489 22.461 9.768 0 18.102-6.253 21.199-14.961h118.363c4.143 0 7.5-3.358 7.5-7.5s-3.357-7.5-7.5-7.5h-118.363c-3.097-8.709-11.431-14.961-21.199-14.961-12.4-.001-22.489 10.076-22.489 22.461zm29.978 0c0 4.114-3.359 7.461-7.488 7.461-4.13 0-7.489-3.347-7.489-7.461s3.359-7.461 7.489-7.461c4.128-.001 7.488 3.347 7.488 7.461z"/><path d="m489.566 388.439c-9.751 0-18.07 6.277-21.155 15.017h-105.89l-38.647-32.569c8.141-4.294 15.93-9.395 23.292-15.278 25.366-20.267 43.505-48.732 51.075-80.151.971-4.027-1.507-8.078-5.534-9.048-4.027-.967-8.077 1.508-9.048 5.535-6.794 28.197-23.08 53.748-45.855 71.946-23.457 18.742-51.75 28.648-81.82 28.648s-58.363-9.907-81.819-28.648c-22.776-18.199-39.063-43.75-45.856-71.947-.971-4.026-5.017-6.504-9.048-5.535-4.027.971-6.505 5.021-5.534 9.048 7.57 31.419 25.709 59.885 51.075 80.152 7.374 5.892 15.176 11 23.331 15.298l-38.624 32.549h-105.889c-3.085-8.74-11.403-15.017-21.155-15.017-12.37 0-22.434 10.101-22.434 22.517s10.063 22.516 22.434 22.516c9.751 0 18.07-6.277 21.155-15.016h108.628c1.769 0 3.48-.625 4.833-1.765l46.161-38.901c9.513 3.684 19.405 6.346 29.57 7.948l-1.331 20.251c-.272 4.133 2.858 7.704 6.991 7.976.168.011.334.017.5.017 3.917 0 7.216-3.043 7.476-7.008l1.292-19.659c2.733.149 5.482.225 8.244.225 3.09 0 6.164-.094 9.218-.281l4.769 72.511h-26.995l1.118-17.006c.272-4.133-2.858-7.704-6.991-7.976-4.146-.264-7.704 2.858-7.976 6.992l-2.518 38.284c-.543 8.249 2.385 16.438 8.031 22.468 5.636 6.019 13.593 9.47 21.832 9.47 8.238 0 16.195-3.451 21.83-9.469 5.647-6.03 8.575-14.22 8.033-22.469l-6.213-94.48c9.841-1.619 19.421-4.233 28.646-7.809l46.18 38.918c1.353 1.14 3.064 1.765 4.833 1.765h108.629c3.085 8.739 11.403 15.016 21.155 15.016 12.37 0 22.434-10.101 22.434-22.516s-10.062-22.519-22.433-22.519zm-467.101 30.033c-4.099 0-7.434-3.372-7.434-7.516s3.335-7.517 7.434-7.517c4.1 0 7.435 3.372 7.435 7.517s-3.336 7.516-7.435 7.516zm244.89 73.806c-2.852 3.045-6.716 4.722-10.882 4.722s-8.031-1.677-10.883-4.723c-2.863-3.058-4.288-7.046-4.014-11.231l.413-6.278h28.967l.413 6.277c.276 4.186-1.15 8.175-4.014 11.233zm222.211-73.806c-4.1 0-7.435-3.372-7.435-7.516s3.335-7.517 7.435-7.517c4.099 0 7.434 3.372 7.434 7.517s-3.335 7.516-7.434 7.516z"/><path d="m22.434 93.45c9.751 0 18.07-6.277 21.155-15.016h105.89l38.63 32.554c-36.104 18.891-63.685 52.57-74.097 94.287-1.004 4.019 1.441 8.09 5.46 9.093.61.152 1.221.225 1.822.225 3.361 0 6.42-2.276 7.271-5.686 14.632-58.618 67.029-99.558 127.421-99.558 35.81 0 69.273 14.178 94.227 39.922 2.884 2.974 7.632 3.049 10.605.166 2.975-2.883 3.049-7.631.166-10.605-11.022-11.371-23.534-20.717-37.109-27.856l38.617-32.543h105.888c3.085 8.739 11.403 15.016 21.155 15.016 12.37 0 22.434-10.101 22.434-22.516s-10.063-22.517-22.434-22.517c-9.751 0-18.07 6.277-21.155 15.017h-108.628c-1.769 0-3.48.625-4.833 1.765l-46.168 38.907c-14.172-5.475-29.237-8.715-44.777-9.543v-50.924c8.724-3.091 14.988-11.417 14.988-21.177 0-12.385-10.088-22.461-22.488-22.461s-22.489 10.076-22.489 22.461c0 9.76 6.265 18.086 14.989 21.177v50.878c-15.972.756-31.365 4.081-45.723 9.617l-46.2-38.935c-1.353-1.14-3.064-1.765-4.833-1.765h-108.63c-3.085-8.74-11.403-15.017-21.155-15.017-12.37.001-22.433 10.103-22.433 22.518s10.063 22.516 22.434 22.516zm467.101-30.033c4.099 0 7.434 3.372 7.434 7.517s-3.335 7.516-7.434 7.516c-4.1 0-7.435-3.372-7.435-7.516s3.336-7.517 7.435-7.517zm-233.061-48.417c4.129 0 7.488 3.347 7.488 7.461s-3.359 7.461-7.488 7.461c-4.13 0-7.489-3.347-7.489-7.461s3.359-7.461 7.489-7.461zm-234.04 48.417c4.1 0 7.435 3.372 7.435 7.517s-3.335 7.516-7.435 7.516c-4.099 0-7.434-3.372-7.434-7.516s3.335-7.517 7.434-7.517z"/></g></svg>